<?xml version="1.0" encoding="utf-8"?>
<!-- Generator: Adobe Illustrator 16.0.0, SVG Export Plug-In . SVG Version: 6.00 Build 0)  -->
<!DOCTYPE svg PUBLIC "-//W3C//DTD SVG 1.1//EN" "http://www.w3.org/Graphics/SVG/1.1/DTD/svg11.dtd">
<svg version="1.1" id="Capa_1" xmlns="http://www.w3.org/2000/svg" xmlns:xlink="http://www.w3.org/1999/xlink" x="0px" y="0px"
	 width="32px" height="32px" viewBox="0 0 32 32" enable-background="new 0 0 32 32" xml:space="preserve">
<path fill="#2D2220" d="M26,7v13H15.5c-0.28,0-0.5-0.22-0.5-0.5s0.22-0.5,0.5-0.5H25V8H7v11h1.5C8.78,19,9,19.22,9,19.5
	S8.78,20,8.5,20H6V7H26z"/>
<rect x="14" y="8" fill="#FFD561" width="11" height="11"/>
<rect x="12" y="8" fill="#FFD561" width="1" height="11"/>
<rect x="10" y="8" fill="#FFD561" width="1" height="11"/>
<rect x="1" y="28" fill="#FFD561" width="30" height="1"/>
<path fill="#2D2220" d="M23,5.5C23,5.78,22.78,6,22.5,6h-8C14.22,6,14,5.78,14,5.5S14.22,5,14.5,5h8C22.78,5,23,5.22,23,5.5z"/>
<path fill="#2D2220" d="M30.86,26.49l-3-5c-0.061-0.101-0.141-0.19-0.23-0.26C27.85,20.94,28,20.55,28,20V7c0,0,0-2-2-2s-2,0-2,0
	h0.5C24.22,5,24,5.22,24,5.5S24.22,6,24.5,6H26c0.81,0,0.99,0.55,1,1v13c0,0.81-0.55,0.99-1,1H6c-0.81,0-0.99-0.55-1-1V7
	c0-0.81,0.55-0.99,1-1h16.5C22.779,6,23,5.78,23,5.5S22.779,5,22.5,5H6c0,0-2,0-2,2v13c0,0,0,0.66,0.38,1.22
	c-0.09,0.07-0.18,0.16-0.24,0.271l-3,5c-0.18,0.3-0.19,0.689-0.01,1C1.31,27.81,1.64,28,2,28h28c0.36,0,0.69-0.19,0.87-0.51
	C31.05,27.18,31.04,26.79,30.86,26.49z M2,27l3-5h22l3,5H2z"/>
<path fill="#2D2220" d="M14,19.5c0-0.276-0.224-0.5-0.5-0.5h-3c-0.276,0-0.5,0.224-0.5,0.5l0,0c0,0.276,0.224,0.5,0.5,0.5h3
	C13.776,20,14,19.776,14,19.5L14,19.5z"/>
<path fill="#2D2220" d="M19,25.5c0-0.276-0.224-0.5-0.5-0.5h-13C5.224,25,5,25.224,5,25.5l0,0C5,25.776,5.224,26,5.5,26h13
	C18.776,26,19,25.776,19,25.5L19,25.5z"/>
<path fill="#2D2220" d="M23,25.5c0-0.276-0.224-0.5-0.5-0.5h-1c-0.276,0-0.5,0.224-0.5,0.5l0,0c0,0.276,0.224,0.5,0.5,0.5h1
	C22.776,26,23,25.776,23,25.5L23,25.5z"/>
<path fill="#2D2220" d="M27,25.5c0-0.276-0.224-0.5-0.5-0.5h-1c-0.276,0-0.5,0.224-0.5,0.5l0,0c0,0.276,0.224,0.5,0.5,0.5h1
	C26.776,26,27,25.776,27,25.5L27,25.5z"/>
<path fill="#2D2220" d="M25,23.5c0-0.276-0.224-0.5-0.5-0.5h-9c-0.276,0-0.5,0.224-0.5,0.5l0,0c0,0.276,0.224,0.5,0.5,0.5h9
	C24.776,24,25,23.776,25,23.5L25,23.5z"/>
<path fill="#2D2220" d="M13,23.5c0-0.276-0.224-0.5-0.5-0.5h-1c-0.276,0-0.5,0.224-0.5,0.5l0,0c0,0.276,0.224,0.5,0.5,0.5h1
	C12.776,24,13,23.776,13,23.5L13,23.5z"/>
<path fill="#2D2220" d="M9,23.5C9,23.224,8.776,23,8.5,23h-1C7.224,23,7,23.224,7,23.5l0,0C7,23.776,7.224,24,7.5,24h1
	C8.776,24,9,23.776,9,23.5L9,23.5z"/>
</svg>
