<?xml version="1.0" encoding="utf-8"?>
<!-- Generator: Adobe Illustrator 16.0.0, SVG Export Plug-In . SVG Version: 6.00 Build 0)  -->
<!DOCTYPE svg PUBLIC "-//W3C//DTD SVG 1.1//EN" "http://www.w3.org/Graphics/SVG/1.1/DTD/svg11.dtd">
<svg version="1.1" id="Capa_1" xmlns="http://www.w3.org/2000/svg" xmlns:xlink="http://www.w3.org/1999/xlink" x="0px" y="0px"
	 width="32px" height="32px" viewBox="0 0 32 32" enable-background="new 0 0 32 32" xml:space="preserve">
<rect x="12" y="8" fill="#FFD561" width="1" height="14"/>
<rect x="10" y="8" fill="#FFD561" width="1" height="14"/>
<path fill="#FFD561" d="M14,8v14h14V10c0,0-1-2-2-2H14z"/>
<g>
	<path fill="#2D2220" d="M28.5,6h-25C2.67,6,2,6.67,2,7.5v16C2,24.33,2.67,25,3.5,25H15v2h-5v1h12v-1h-5v-2h11.5
		c0.83,0,1.5-0.67,1.5-1.5v-16C30,6.67,29.33,6,28.5,6z M29,21H6v1h23v1.5c0,0.28-0.22,0.5-0.5,0.5h-25C3.22,24,3,23.78,3,23.5v-16
		C3,7.22,3.22,7,3.5,7h25C28.78,7,29,7.22,29,7.5V21z"/>
</g>
<g>
	<path fill="#2D2220" d="M28,9.5v10h-1v-10c0-0.4-0.28-0.49-0.51-0.5H5.5C5.1,9,5.01,9.27,5,9.51V22H4V9.5C4,8.9,4.4,8,5.5,8h21
		C27.1,8,28,8.4,28,9.5z"/>
</g>
<rect x="11" y="28" fill="#FFD561" width="8" height="1"/>
<rect x="20" y="28" fill="#FFD561" width="3" height="1"/>
</svg>
