<svg xmlns="http://www.w3.org/2000/svg" viewBox="0 0 232 232"><defs><style>.cls-1{fill:#fdfdfe;}.cls-2{fill:#6772e4;}</style></defs><title>Fichier 1</title><g id="Calque_2" data-name="Calque 2"><g id="Calque_1-2" data-name="Calque 1"><path class="cls-1" d="M1,233V1H233V233Zm121.43-1c19.43-.23,42.82-7.08,62.91-22.78,36.91-28.84,52.06-66.69,44.59-113.11-2.05-12.73-15.25-21.48-27.83-19.37-15,2.52-23.13,14.72-20.89,31.46,5,37.63-22.61,71.88-60.15,73.6-27,1.24-48.12-10.17-61-34S48.86,100,65.12,78.28c16.5-22,39.2-29.81,66.25-24.63,14.47,2.77,27.88-5.38,30.64-18.75,2.93-14.2-5.38-26.67-20-30.09A109.4,109.4,0,0,0,100.33,3.2,114.86,114.86,0,0,0,2.81,129.3C9.11,187.54,58.25,232,122.43,232Z" transform="translate(-1 -1)"/><path class="cls-2" d="M122.43,232C58.25,232,9.11,187.54,2.81,129.3A114.86,114.86,0,0,1,100.33,3.2,109.4,109.4,0,0,1,142,4.81c14.65,3.42,23,15.89,20,30.09-2.76,13.37-16.17,21.52-30.64,18.75-27.05-5.18-49.75,2.64-66.25,24.63C48.86,100,47.18,124,60.05,147.8s34,35.24,61,34c37.54-1.72,65.17-36,60.15-73.6C179,91.46,187.07,79.26,202.1,76.74c12.58-2.11,25.78,6.64,27.83,19.37,7.47,46.42-7.68,84.27-44.59,113.11C165.25,224.92,141.86,231.77,122.43,232Z" transform="translate(-1 -1)"/></g></g></svg>