<svg id="Calque_1" data-name="Calque 1" xmlns="http://www.w3.org/2000/svg" viewBox="0 0 232 232"><defs><style>.cls-1{fill:#fff;}</style></defs><title>logo_white</title><g id="Calque_2" data-name="Calque 2"><g id="Calque_1-2" data-name="Calque 1-2"><path class="cls-1" d="M121.43,231C57.25,231,8.11,186.54,1.81,128.3A114.86,114.86,0,0,1,99.33,2.2,109.48,109.48,0,0,1,141,3.81c14.65,3.42,23,15.89,20,30.09-2.76,13.37-16.17,21.52-30.64,18.75-27.05-5.18-49.75,2.64-66.25,24.63C47.86,99,46.18,123,59.05,146.8s34,35.24,61,34c37.54-1.72,65.17-36,60.15-73.6-2.2-16.74,5.87-28.94,20.9-31.46,12.58-2.11,25.78,6.64,27.83,19.37,7.47,46.42-7.68,84.27-44.59,113.11C164.25,223.92,140.86,230.77,121.43,231Z"/></g></g></svg>