<svg xmlns="http://www.w3.org/2000/svg" viewBox="0 0 232 232"><defs><style>.cls-1{fill:#6772e4;}.cls-2{fill:#fff;}</style></defs><title>Fichier 6</title><g id="Calque_2" data-name="Calque 2"><g id="Calque_2-2" data-name="Calque 2"><circle class="cls-1" cx="116" cy="116" r="116"/></g><g id="Calque_1-2" data-name="Calque 1"><path class="cls-2" d="M120.3,206.38c-50.42,0-89-34.93-94-80.69a90.21,90.21,0,0,1,76.61-99.06,85.64,85.64,0,0,1,32.72,1.26c11.51,2.69,18,12.49,15.73,23.64-2.17,10.5-12.7,16.91-24.07,14.73-21.25-4.07-39.08,2.07-52,19.35-12.78,17-14.1,35.91-4,54.61S98,167.91,119.23,166.94c29.48-1.35,51.2-28.26,47.25-57.82-1.76-13.16,4.6-22.74,16.41-24.72,9.89-1.65,20.25,5.22,21.86,15.21,5.87,36.47-6,66.21-35,88.87C153.94,200.81,135.57,206.2,120.3,206.38Z"/></g></g></svg>