<?xml version="1.0" encoding="utf-8"?>
<svg version="1.1" baseProfile="full"  width="188" height="188" viewBox="0 0 188 188"
		 xmlns="http://www.w3.org/2000/svg" xmlns:xlink="http://www.w3.org/1999/xlink" xmlns:ev="http://www.w3.org/2001/xml-events">
<desc></desc>
<rect width="188" height="188" fill="#ffffff" cx="0" cy="0" />
<defs>
<rect id="p" width="9" height="9" />
</defs>
<g fill="#000000">
<use x="0" y="0" xlink:href="#p" />
<use x="0" y="9" xlink:href="#p" />
<use x="0" y="18" xlink:href="#p" />
<use x="0" y="27" xlink:href="#p" />
<use x="0" y="36" xlink:href="#p" />
<use x="0" y="45" xlink:href="#p" />
<use x="0" y="54" xlink:href="#p" />
<use x="0" y="72" xlink:href="#p" />
<use x="0" y="81" xlink:href="#p" />
<use x="0" y="90" xlink:href="#p" />
<use x="0" y="99" xlink:href="#p" />
<use x="0" y="108" xlink:href="#p" />
<use x="0" y="126" xlink:href="#p" />
<use x="0" y="135" xlink:href="#p" />
<use x="0" y="144" xlink:href="#p" />
<use x="0" y="153" xlink:href="#p" />
<use x="0" y="162" xlink:href="#p" />
<use x="0" y="171" xlink:href="#p" />
<use x="0" y="180" xlink:href="#p" />
<use x="9" y="0" xlink:href="#p" />
<use x="9" y="54" xlink:href="#p" />
<use x="9" y="90" xlink:href="#p" />
<use x="9" y="99" xlink:href="#p" />
<use x="9" y="126" xlink:href="#p" />
<use x="9" y="180" xlink:href="#p" />
<use x="18" y="0" xlink:href="#p" />
<use x="18" y="18" xlink:href="#p" />
<use x="18" y="27" xlink:href="#p" />
<use x="18" y="36" xlink:href="#p" />
<use x="18" y="54" xlink:href="#p" />
<use x="18" y="72" xlink:href="#p" />
<use x="18" y="81" xlink:href="#p" />
<use x="18" y="90" xlink:href="#p" />
<use x="18" y="99" xlink:href="#p" />
<use x="18" y="108" xlink:href="#p" />
<use x="18" y="126" xlink:href="#p" />
<use x="18" y="144" xlink:href="#p" />
<use x="18" y="153" xlink:href="#p" />
<use x="18" y="162" xlink:href="#p" />
<use x="18" y="180" xlink:href="#p" />
<use x="27" y="0" xlink:href="#p" />
<use x="27" y="18" xlink:href="#p" />
<use x="27" y="27" xlink:href="#p" />
<use x="27" y="36" xlink:href="#p" />
<use x="27" y="54" xlink:href="#p" />
<use x="27" y="126" xlink:href="#p" />
<use x="27" y="144" xlink:href="#p" />
<use x="27" y="153" xlink:href="#p" />
<use x="27" y="162" xlink:href="#p" />
<use x="27" y="180" xlink:href="#p" />
<use x="36" y="0" xlink:href="#p" />
<use x="36" y="18" xlink:href="#p" />
<use x="36" y="27" xlink:href="#p" />
<use x="36" y="36" xlink:href="#p" />
<use x="36" y="54" xlink:href="#p" />
<use x="36" y="72" xlink:href="#p" />
<use x="36" y="90" xlink:href="#p" />
<use x="36" y="108" xlink:href="#p" />
<use x="36" y="126" xlink:href="#p" />
<use x="36" y="144" xlink:href="#p" />
<use x="36" y="153" xlink:href="#p" />
<use x="36" y="162" xlink:href="#p" />
<use x="36" y="180" xlink:href="#p" />
<use x="45" y="0" xlink:href="#p" />
<use x="45" y="54" xlink:href="#p" />
<use x="45" y="81" xlink:href="#p" />
<use x="45" y="90" xlink:href="#p" />
<use x="45" y="108" xlink:href="#p" />
<use x="45" y="126" xlink:href="#p" />
<use x="45" y="180" xlink:href="#p" />
<use x="54" y="0" xlink:href="#p" />
<use x="54" y="9" xlink:href="#p" />
<use x="54" y="18" xlink:href="#p" />
<use x="54" y="27" xlink:href="#p" />
<use x="54" y="36" xlink:href="#p" />
<use x="54" y="45" xlink:href="#p" />
<use x="54" y="54" xlink:href="#p" />
<use x="54" y="72" xlink:href="#p" />
<use x="54" y="90" xlink:href="#p" />
<use x="54" y="108" xlink:href="#p" />
<use x="54" y="126" xlink:href="#p" />
<use x="54" y="135" xlink:href="#p" />
<use x="54" y="144" xlink:href="#p" />
<use x="54" y="153" xlink:href="#p" />
<use x="54" y="162" xlink:href="#p" />
<use x="54" y="171" xlink:href="#p" />
<use x="54" y="180" xlink:href="#p" />
<use x="63" y="90" xlink:href="#p" />
<use x="63" y="99" xlink:href="#p" />
<use x="63" y="108" xlink:href="#p" />
<use x="72" y="9" xlink:href="#p" />
<use x="72" y="36" xlink:href="#p" />
<use x="72" y="54" xlink:href="#p" />
<use x="72" y="90" xlink:href="#p" />
<use x="72" y="117" xlink:href="#p" />
<use x="72" y="144" xlink:href="#p" />
<use x="72" y="162" xlink:href="#p" />
<use x="72" y="180" xlink:href="#p" />
<use x="81" y="9" xlink:href="#p" />
<use x="81" y="27" xlink:href="#p" />
<use x="81" y="72" xlink:href="#p" />
<use x="81" y="90" xlink:href="#p" />
<use x="81" y="99" xlink:href="#p" />
<use x="81" y="126" xlink:href="#p" />
<use x="81" y="135" xlink:href="#p" />
<use x="81" y="162" xlink:href="#p" />
<use x="81" y="171" xlink:href="#p" />
<use x="81" y="180" xlink:href="#p" />
<use x="90" y="36" xlink:href="#p" />
<use x="90" y="45" xlink:href="#p" />
<use x="90" y="54" xlink:href="#p" />
<use x="90" y="63" xlink:href="#p" />
<use x="90" y="90" xlink:href="#p" />
<use x="90" y="108" xlink:href="#p" />
<use x="90" y="126" xlink:href="#p" />
<use x="90" y="153" xlink:href="#p" />
<use x="90" y="162" xlink:href="#p" />
<use x="90" y="171" xlink:href="#p" />
<use x="90" y="180" xlink:href="#p" />
<use x="99" y="18" xlink:href="#p" />
<use x="99" y="36" xlink:href="#p" />
<use x="99" y="45" xlink:href="#p" />
<use x="99" y="81" xlink:href="#p" />
<use x="99" y="90" xlink:href="#p" />
<use x="99" y="99" xlink:href="#p" />
<use x="99" y="108" xlink:href="#p" />
<use x="99" y="153" xlink:href="#p" />
<use x="99" y="162" xlink:href="#p" />
<use x="99" y="171" xlink:href="#p" />
<use x="99" y="180" xlink:href="#p" />
<use x="108" y="0" xlink:href="#p" />
<use x="108" y="18" xlink:href="#p" />
<use x="108" y="36" xlink:href="#p" />
<use x="108" y="54" xlink:href="#p" />
<use x="108" y="72" xlink:href="#p" />
<use x="108" y="99" xlink:href="#p" />
<use x="108" y="126" xlink:href="#p" />
<use x="108" y="144" xlink:href="#p" />
<use x="108" y="171" xlink:href="#p" />
<use x="117" y="90" xlink:href="#p" />
<use x="117" y="108" xlink:href="#p" />
<use x="117" y="117" xlink:href="#p" />
<use x="117" y="144" xlink:href="#p" />
<use x="117" y="153" xlink:href="#p" />
<use x="117" y="162" xlink:href="#p" />
<use x="117" y="171" xlink:href="#p" />
<use x="126" y="0" xlink:href="#p" />
<use x="126" y="9" xlink:href="#p" />
<use x="126" y="18" xlink:href="#p" />
<use x="126" y="27" xlink:href="#p" />
<use x="126" y="36" xlink:href="#p" />
<use x="126" y="45" xlink:href="#p" />
<use x="126" y="54" xlink:href="#p" />
<use x="126" y="81" xlink:href="#p" />
<use x="126" y="126" xlink:href="#p" />
<use x="126" y="180" xlink:href="#p" />
<use x="135" y="0" xlink:href="#p" />
<use x="135" y="54" xlink:href="#p" />
<use x="135" y="81" xlink:href="#p" />
<use x="135" y="90" xlink:href="#p" />
<use x="135" y="108" xlink:href="#p" />
<use x="135" y="117" xlink:href="#p" />
<use x="135" y="126" xlink:href="#p" />
<use x="135" y="135" xlink:href="#p" />
<use x="135" y="144" xlink:href="#p" />
<use x="135" y="153" xlink:href="#p" />
<use x="135" y="162" xlink:href="#p" />
<use x="135" y="171" xlink:href="#p" />
<use x="135" y="180" xlink:href="#p" />
<use x="144" y="0" xlink:href="#p" />
<use x="144" y="18" xlink:href="#p" />
<use x="144" y="27" xlink:href="#p" />
<use x="144" y="36" xlink:href="#p" />
<use x="144" y="54" xlink:href="#p" />
<use x="144" y="72" xlink:href="#p" />
<use x="144" y="81" xlink:href="#p" />
<use x="144" y="90" xlink:href="#p" />
<use x="144" y="99" xlink:href="#p" />
<use x="144" y="117" xlink:href="#p" />
<use x="144" y="126" xlink:href="#p" />
<use x="144" y="162" xlink:href="#p" />
<use x="144" y="180" xlink:href="#p" />
<use x="153" y="0" xlink:href="#p" />
<use x="153" y="18" xlink:href="#p" />
<use x="153" y="27" xlink:href="#p" />
<use x="153" y="36" xlink:href="#p" />
<use x="153" y="54" xlink:href="#p" />
<use x="153" y="81" xlink:href="#p" />
<use x="153" y="126" xlink:href="#p" />
<use x="153" y="180" xlink:href="#p" />
<use x="162" y="0" xlink:href="#p" />
<use x="162" y="18" xlink:href="#p" />
<use x="162" y="27" xlink:href="#p" />
<use x="162" y="36" xlink:href="#p" />
<use x="162" y="54" xlink:href="#p" />
<use x="162" y="117" xlink:href="#p" />
<use x="162" y="153" xlink:href="#p" />
<use x="171" y="0" xlink:href="#p" />
<use x="171" y="54" xlink:href="#p" />
<use x="171" y="72" xlink:href="#p" />
<use x="171" y="90" xlink:href="#p" />
<use x="171" y="99" xlink:href="#p" />
<use x="171" y="108" xlink:href="#p" />
<use x="171" y="117" xlink:href="#p" />
<use x="171" y="126" xlink:href="#p" />
<use x="171" y="135" xlink:href="#p" />
<use x="171" y="153" xlink:href="#p" />
<use x="171" y="171" xlink:href="#p" />
<use x="171" y="180" xlink:href="#p" />
<use x="180" y="0" xlink:href="#p" />
<use x="180" y="9" xlink:href="#p" />
<use x="180" y="18" xlink:href="#p" />
<use x="180" y="27" xlink:href="#p" />
<use x="180" y="36" xlink:href="#p" />
<use x="180" y="45" xlink:href="#p" />
<use x="180" y="54" xlink:href="#p" />
<use x="180" y="81" xlink:href="#p" />
<use x="180" y="90" xlink:href="#p" />
<use x="180" y="99" xlink:href="#p" />
<use x="180" y="108" xlink:href="#p" />
<use x="180" y="126" xlink:href="#p" />
<use x="180" y="135" xlink:href="#p" />
<use x="180" y="162" xlink:href="#p" />
<use x="180" y="180" xlink:href="#p" />
</g>
</svg>
